<svg xmlns="http://www.w3.org/2000/svg" viewBox="0 0 32 32">
  <defs>
    <linearGradient id="g" x1="0" y1="0" x2="1" y2="1">
      <stop offset="0%" stop-color="#7A8A00"/>
      <stop offset="100%" stop-color="#BBCB64"/>
    </linearGradient>
  </defs>
  <rect width="32" height="32" rx="7" fill="url(#g)"/>
  <path d="M10 16c0-1.7 1.3-3.2 3-3.2 1.2 0 2 .7 3 2l0 0c1-1.3 1.8-2 3-2 1.7 0 3 1.5 3 3.2 0 1.7-1.3 3.2-3 3.2-1.2 0-2-.7-3-2l0 0c-1 1.3-1.8 2-3 2-1.7 0-3-1.5-3-3.2z" fill="none" stroke="white" stroke-width="2" stroke-linejoin="round"/>
</svg>
